<mxfile host="app.diagrams.net" modified="2024-05-11T18:07:21.709Z" agent="Mozilla/5.0 (X11; Ubuntu; Linux x86_64; rv:125.0) Gecko/20100101 Firefox/125.0" etag="mYr-meqI8N9LNSYI1Xes" version="24.3.1" type="github">
  <diagram name="Page-1" id="Ndj4Han62RpZsEaXY1t7">
    <mxGraphModel dx="1366" dy="757" grid="1" gridSize="10" guides="1" tooltips="1" connect="1" arrows="1" fold="1" page="1" pageScale="1" pageWidth="850" pageHeight="1100" math="0" shadow="0">
      <root>
        <mxCell id="0" />
        <mxCell id="1" parent="0" />
        <mxCell id="M0wv-4VBMUWfz7l9fkuc-1" value="" style="rounded=1;whiteSpace=wrap;html=1;arcSize=6;" vertex="1" parent="1">
          <mxGeometry x="320" y="150" width="360" height="610" as="geometry" />
        </mxCell>
        <mxCell id="M0wv-4VBMUWfz7l9fkuc-3" value="CLK" style="text;html=1;align=center;verticalAlign=middle;whiteSpace=wrap;rounded=0;" vertex="1" parent="1">
          <mxGeometry x="320" y="170" width="60" height="30" as="geometry" />
        </mxCell>
        <mxCell id="M0wv-4VBMUWfz7l9fkuc-4" value="SD0" style="text;html=1;align=center;verticalAlign=middle;whiteSpace=wrap;rounded=0;" vertex="1" parent="1">
          <mxGeometry x="320" y="200" width="60" height="30" as="geometry" />
        </mxCell>
        <mxCell id="M0wv-4VBMUWfz7l9fkuc-5" value="SD1" style="text;html=1;align=center;verticalAlign=middle;whiteSpace=wrap;rounded=0;" vertex="1" parent="1">
          <mxGeometry x="320" y="230" width="60" height="30" as="geometry" />
        </mxCell>
        <mxCell id="M0wv-4VBMUWfz7l9fkuc-6" value="P15" style="text;html=1;align=center;verticalAlign=middle;whiteSpace=wrap;rounded=0;" vertex="1" parent="1">
          <mxGeometry x="320" y="260" width="60" height="30" as="geometry" />
        </mxCell>
        <mxCell id="M0wv-4VBMUWfz7l9fkuc-7" value="P2" style="text;html=1;align=center;verticalAlign=middle;whiteSpace=wrap;rounded=0;" vertex="1" parent="1">
          <mxGeometry x="320" y="290" width="60" height="30" as="geometry" />
        </mxCell>
        <mxCell id="M0wv-4VBMUWfz7l9fkuc-8" value="P0" style="text;html=1;align=center;verticalAlign=middle;whiteSpace=wrap;rounded=0;" vertex="1" parent="1">
          <mxGeometry x="320" y="320" width="60" height="30" as="geometry" />
        </mxCell>
        <mxCell id="M0wv-4VBMUWfz7l9fkuc-9" value="P4" style="text;html=1;align=center;verticalAlign=middle;whiteSpace=wrap;rounded=0;" vertex="1" parent="1">
          <mxGeometry x="320" y="350" width="60" height="30" as="geometry" />
        </mxCell>
        <mxCell id="M0wv-4VBMUWfz7l9fkuc-11" value="P16" style="text;html=1;align=center;verticalAlign=middle;whiteSpace=wrap;rounded=0;" vertex="1" parent="1">
          <mxGeometry x="320" y="380" width="60" height="30" as="geometry" />
        </mxCell>
        <mxCell id="M0wv-4VBMUWfz7l9fkuc-12" value="&lt;div&gt;P17&lt;/div&gt;" style="text;html=1;align=center;verticalAlign=middle;whiteSpace=wrap;rounded=0;" vertex="1" parent="1">
          <mxGeometry x="320" y="410" width="60" height="30" as="geometry" />
        </mxCell>
        <mxCell id="M0wv-4VBMUWfz7l9fkuc-13" value="&lt;div&gt;P5&lt;/div&gt;" style="text;html=1;align=center;verticalAlign=middle;whiteSpace=wrap;rounded=0;" vertex="1" parent="1">
          <mxGeometry x="320" y="440" width="60" height="30" as="geometry" />
        </mxCell>
        <mxCell id="M0wv-4VBMUWfz7l9fkuc-14" value="P18" style="text;html=1;align=center;verticalAlign=middle;whiteSpace=wrap;rounded=0;" vertex="1" parent="1">
          <mxGeometry x="320" y="470" width="60" height="30" as="geometry" />
        </mxCell>
        <mxCell id="M0wv-4VBMUWfz7l9fkuc-15" value="P19" style="text;html=1;align=center;verticalAlign=middle;whiteSpace=wrap;rounded=0;" vertex="1" parent="1">
          <mxGeometry x="320" y="500" width="60" height="30" as="geometry" />
        </mxCell>
        <mxCell id="M0wv-4VBMUWfz7l9fkuc-16" value="GND" style="text;html=1;align=center;verticalAlign=middle;whiteSpace=wrap;rounded=0;" vertex="1" parent="1">
          <mxGeometry x="320" y="530" width="60" height="30" as="geometry" />
        </mxCell>
        <mxCell id="M0wv-4VBMUWfz7l9fkuc-17" value="P21" style="text;html=1;align=center;verticalAlign=middle;whiteSpace=wrap;rounded=0;" vertex="1" parent="1">
          <mxGeometry x="320" y="560" width="60" height="30" as="geometry" />
        </mxCell>
        <mxCell id="M0wv-4VBMUWfz7l9fkuc-18" value="RX" style="text;html=1;align=center;verticalAlign=middle;whiteSpace=wrap;rounded=0;" vertex="1" parent="1">
          <mxGeometry x="320" y="590" width="60" height="30" as="geometry" />
        </mxCell>
        <mxCell id="M0wv-4VBMUWfz7l9fkuc-19" value="TX" style="text;html=1;align=center;verticalAlign=middle;whiteSpace=wrap;rounded=0;" vertex="1" parent="1">
          <mxGeometry x="320" y="620" width="60" height="30" as="geometry" />
        </mxCell>
        <mxCell id="M0wv-4VBMUWfz7l9fkuc-20" value="P22" style="text;html=1;align=center;verticalAlign=middle;whiteSpace=wrap;rounded=0;" vertex="1" parent="1">
          <mxGeometry x="320" y="650" width="60" height="30" as="geometry" />
        </mxCell>
        <mxCell id="M0wv-4VBMUWfz7l9fkuc-21" value="P23" style="text;html=1;align=center;verticalAlign=middle;whiteSpace=wrap;rounded=0;" vertex="1" parent="1">
          <mxGeometry x="320" y="680" width="60" height="30" as="geometry" />
        </mxCell>
        <mxCell id="M0wv-4VBMUWfz7l9fkuc-22" value="GND" style="text;html=1;align=center;verticalAlign=middle;whiteSpace=wrap;rounded=0;" vertex="1" parent="1">
          <mxGeometry x="320" y="710" width="60" height="30" as="geometry" />
        </mxCell>
        <mxCell id="M0wv-4VBMUWfz7l9fkuc-23" value="3V3" style="text;html=1;align=center;verticalAlign=middle;whiteSpace=wrap;rounded=0;" vertex="1" parent="1">
          <mxGeometry x="620" y="170" width="60" height="30" as="geometry" />
        </mxCell>
        <mxCell id="M0wv-4VBMUWfz7l9fkuc-24" value="EN" style="text;html=1;align=center;verticalAlign=middle;whiteSpace=wrap;rounded=0;" vertex="1" parent="1">
          <mxGeometry x="620" y="200" width="60" height="30" as="geometry" />
        </mxCell>
        <mxCell id="M0wv-4VBMUWfz7l9fkuc-25" value="SVP" style="text;html=1;align=center;verticalAlign=middle;whiteSpace=wrap;rounded=0;" vertex="1" parent="1">
          <mxGeometry x="620" y="230" width="60" height="30" as="geometry" />
        </mxCell>
        <mxCell id="M0wv-4VBMUWfz7l9fkuc-26" value="SVN" style="text;html=1;align=center;verticalAlign=middle;whiteSpace=wrap;rounded=0;" vertex="1" parent="1">
          <mxGeometry x="620" y="260" width="60" height="30" as="geometry" />
        </mxCell>
        <mxCell id="M0wv-4VBMUWfz7l9fkuc-27" value="P34" style="text;html=1;align=center;verticalAlign=middle;whiteSpace=wrap;rounded=0;" vertex="1" parent="1">
          <mxGeometry x="620" y="290" width="60" height="30" as="geometry" />
        </mxCell>
        <mxCell id="M0wv-4VBMUWfz7l9fkuc-28" value="P35" style="text;html=1;align=center;verticalAlign=middle;whiteSpace=wrap;rounded=0;" vertex="1" parent="1">
          <mxGeometry x="620" y="320" width="60" height="30" as="geometry" />
        </mxCell>
        <mxCell id="M0wv-4VBMUWfz7l9fkuc-29" value="P32" style="text;html=1;align=center;verticalAlign=middle;whiteSpace=wrap;rounded=0;" vertex="1" parent="1">
          <mxGeometry x="620" y="350" width="60" height="30" as="geometry" />
        </mxCell>
        <mxCell id="M0wv-4VBMUWfz7l9fkuc-30" value="P33" style="text;html=1;align=center;verticalAlign=middle;whiteSpace=wrap;rounded=0;" vertex="1" parent="1">
          <mxGeometry x="620" y="380" width="60" height="30" as="geometry" />
        </mxCell>
        <mxCell id="M0wv-4VBMUWfz7l9fkuc-31" value="P25" style="text;html=1;align=center;verticalAlign=middle;whiteSpace=wrap;rounded=0;" vertex="1" parent="1">
          <mxGeometry x="620" y="410" width="60" height="30" as="geometry" />
        </mxCell>
        <mxCell id="M0wv-4VBMUWfz7l9fkuc-32" value="P26" style="text;html=1;align=center;verticalAlign=middle;whiteSpace=wrap;rounded=0;" vertex="1" parent="1">
          <mxGeometry x="620" y="440" width="60" height="30" as="geometry" />
        </mxCell>
        <mxCell id="M0wv-4VBMUWfz7l9fkuc-33" value="P27" style="text;html=1;align=center;verticalAlign=middle;whiteSpace=wrap;rounded=0;" vertex="1" parent="1">
          <mxGeometry x="620" y="470" width="60" height="30" as="geometry" />
        </mxCell>
        <mxCell id="M0wv-4VBMUWfz7l9fkuc-34" value="P14" style="text;html=1;align=center;verticalAlign=middle;whiteSpace=wrap;rounded=0;" vertex="1" parent="1">
          <mxGeometry x="620" y="500" width="60" height="30" as="geometry" />
        </mxCell>
        <mxCell id="M0wv-4VBMUWfz7l9fkuc-35" value="P12" style="text;html=1;align=center;verticalAlign=middle;whiteSpace=wrap;rounded=0;" vertex="1" parent="1">
          <mxGeometry x="620" y="530" width="60" height="30" as="geometry" />
        </mxCell>
        <mxCell id="M0wv-4VBMUWfz7l9fkuc-36" value="GND" style="text;html=1;align=center;verticalAlign=middle;whiteSpace=wrap;rounded=0;" vertex="1" parent="1">
          <mxGeometry x="620" y="560" width="60" height="30" as="geometry" />
        </mxCell>
        <mxCell id="M0wv-4VBMUWfz7l9fkuc-37" value="P13" style="text;html=1;align=center;verticalAlign=middle;whiteSpace=wrap;rounded=0;" vertex="1" parent="1">
          <mxGeometry x="620" y="590" width="60" height="30" as="geometry" />
        </mxCell>
        <mxCell id="M0wv-4VBMUWfz7l9fkuc-38" value="SD2" style="text;html=1;align=center;verticalAlign=middle;whiteSpace=wrap;rounded=0;" vertex="1" parent="1">
          <mxGeometry x="620" y="620" width="60" height="30" as="geometry" />
        </mxCell>
        <mxCell id="M0wv-4VBMUWfz7l9fkuc-39" value="SD3" style="text;html=1;align=center;verticalAlign=middle;whiteSpace=wrap;rounded=0;" vertex="1" parent="1">
          <mxGeometry x="620" y="650" width="60" height="30" as="geometry" />
        </mxCell>
        <mxCell id="M0wv-4VBMUWfz7l9fkuc-40" value="CND" style="text;html=1;align=center;verticalAlign=middle;whiteSpace=wrap;rounded=0;" vertex="1" parent="1">
          <mxGeometry x="620" y="680" width="60" height="30" as="geometry" />
        </mxCell>
        <mxCell id="M0wv-4VBMUWfz7l9fkuc-41" value="5V" style="text;html=1;align=center;verticalAlign=middle;whiteSpace=wrap;rounded=0;" vertex="1" parent="1">
          <mxGeometry x="620" y="710" width="60" height="30" as="geometry" />
        </mxCell>
        <mxCell id="M0wv-4VBMUWfz7l9fkuc-43" value="" style="shape=image;verticalLabelPosition=bottom;labelBackgroundColor=default;verticalAlign=top;aspect=fixed;imageAspect=0;image=https://m.media-amazon.com/images/I/61afDc5iOYL._AC_SL1001_.jpg;clipPath=inset(49.66% 21.67% 4.39% 26%);" vertex="1" parent="1">
          <mxGeometry x="340" y="1060" width="832.5735294117648" height="721.2632212439116" as="geometry" />
        </mxCell>
        <mxCell id="M0wv-4VBMUWfz7l9fkuc-44" value="GROUND PINS" style="text;html=1;align=center;verticalAlign=middle;whiteSpace=wrap;rounded=0;fillColor=#dae8fc;strokeColor=#6c8ebf;" vertex="1" parent="1">
          <mxGeometry x="215" y="1414" width="125" height="30" as="geometry" />
        </mxCell>
        <mxCell id="M0wv-4VBMUWfz7l9fkuc-45" value="GROUND PINS" style="text;html=1;align=center;verticalAlign=middle;whiteSpace=wrap;rounded=0;fillColor=#dae8fc;strokeColor=#6c8ebf;" vertex="1" parent="1">
          <mxGeometry x="215" y="1490" width="125" height="30" as="geometry" />
        </mxCell>
        <mxCell id="M0wv-4VBMUWfz7l9fkuc-46" value="GROUND PINS" style="text;html=1;align=center;verticalAlign=middle;whiteSpace=wrap;rounded=0;fillColor=#dae8fc;strokeColor=#6c8ebf;" vertex="1" parent="1">
          <mxGeometry x="1172.57" y="1120" width="125" height="30" as="geometry" />
        </mxCell>
        <mxCell id="M0wv-4VBMUWfz7l9fkuc-47" value="GROUND PINS" style="text;html=1;align=center;verticalAlign=middle;whiteSpace=wrap;rounded=0;fillColor=#dae8fc;strokeColor=#6c8ebf;" vertex="1" parent="1">
          <mxGeometry x="1172.57" y="1340" width="125" height="30" as="geometry" />
        </mxCell>
        <mxCell id="M0wv-4VBMUWfz7l9fkuc-48" value="POWER PINS" style="text;html=1;align=center;verticalAlign=middle;whiteSpace=wrap;rounded=0;fillColor=#f8cecc;strokeColor=#b85450;" vertex="1" parent="1">
          <mxGeometry x="214.9999999999999" y="1450" width="125" height="30" as="geometry" />
        </mxCell>
        <mxCell id="M0wv-4VBMUWfz7l9fkuc-49" value="POWER PINS" style="text;html=1;align=center;verticalAlign=middle;whiteSpace=wrap;rounded=0;fillColor=#f8cecc;strokeColor=#b85450;" vertex="1" parent="1">
          <mxGeometry x="214.9999999999999" y="1525" width="125" height="30" as="geometry" />
        </mxCell>
        <mxCell id="M0wv-4VBMUWfz7l9fkuc-50" value="POWER PINS" style="text;html=1;align=center;verticalAlign=middle;whiteSpace=wrap;rounded=0;fillColor=#f8cecc;strokeColor=#b85450;" vertex="1" parent="1">
          <mxGeometry x="1172.57" y="1414" width="125" height="30" as="geometry" />
        </mxCell>
        <mxCell id="M0wv-4VBMUWfz7l9fkuc-51" value="POWER PINS" style="text;html=1;align=center;verticalAlign=middle;whiteSpace=wrap;rounded=0;fillColor=#f8cecc;strokeColor=#b85450;" vertex="1" parent="1">
          <mxGeometry x="1172.57" y="1377" width="125" height="30" as="geometry" />
        </mxCell>
        <mxCell id="M0wv-4VBMUWfz7l9fkuc-52" value="ENABLE PINS" style="text;html=1;align=center;verticalAlign=middle;whiteSpace=wrap;rounded=0;fillColor=#e1d5e7;strokeColor=#9673a6;" vertex="1" parent="1">
          <mxGeometry x="1172.57" y="1525" width="125" height="30" as="geometry" />
        </mxCell>
        <mxCell id="M0wv-4VBMUWfz7l9fkuc-53" value="ENABLE PINS" style="text;html=1;align=center;verticalAlign=middle;whiteSpace=wrap;rounded=0;fillColor=#e1d5e7;strokeColor=#9673a6;" vertex="1" parent="1">
          <mxGeometry x="214.9999999999999" y="1600" width="125" height="30" as="geometry" />
        </mxCell>
        <mxCell id="M0wv-4VBMUWfz7l9fkuc-54" value="ENABLE PINS" style="text;html=1;align=center;verticalAlign=middle;whiteSpace=wrap;rounded=0;fillColor=#e1d5e7;strokeColor=#9673a6;" vertex="1" parent="1">
          <mxGeometry x="1172.57" y="1600" width="125" height="30" as="geometry" />
        </mxCell>
        <mxCell id="M0wv-4VBMUWfz7l9fkuc-55" value="ENABLE PINS" style="text;html=1;align=center;verticalAlign=middle;whiteSpace=wrap;rounded=0;fillColor=#e1d5e7;strokeColor=#9673a6;" vertex="1" parent="1">
          <mxGeometry x="1172.57" y="1635" width="125" height="30" as="geometry" />
        </mxCell>
        <mxCell id="M0wv-4VBMUWfz7l9fkuc-56" value="I2C PIN (Assumed)" style="text;html=1;align=center;verticalAlign=middle;whiteSpace=wrap;rounded=0;fillColor=#e1d5e7;strokeColor=#9673a6;" vertex="1" parent="1">
          <mxGeometry x="1172.57" y="1156" width="125" height="30" as="geometry" />
        </mxCell>
        <mxCell id="M0wv-4VBMUWfz7l9fkuc-57" value="I2C PIN (Assumed)" style="text;html=1;align=center;verticalAlign=middle;whiteSpace=wrap;rounded=0;fillColor=#e1d5e7;strokeColor=#9673a6;" vertex="1" parent="1">
          <mxGeometry x="1172.57" y="1267" width="125" height="30" as="geometry" />
        </mxCell>
        <mxCell id="M0wv-4VBMUWfz7l9fkuc-58" value="TX (Reserved)" style="text;html=1;align=center;verticalAlign=middle;whiteSpace=wrap;rounded=0;fillColor=#d80073;strokeColor=#A50040;fontColor=#ffffff;" vertex="1" parent="1">
          <mxGeometry x="1172.57" y="1193" width="125" height="30" as="geometry" />
        </mxCell>
        <mxCell id="M0wv-4VBMUWfz7l9fkuc-59" value="RX (Reserved)" style="text;html=1;align=center;verticalAlign=middle;whiteSpace=wrap;rounded=0;fillColor=#d80073;strokeColor=#A50040;fontColor=#ffffff;" vertex="1" parent="1">
          <mxGeometry x="1172.57" y="1230" width="125" height="30" as="geometry" />
        </mxCell>
        <mxCell id="M0wv-4VBMUWfz7l9fkuc-60" value="SPI (Reserved)" style="text;html=1;align=center;verticalAlign=middle;whiteSpace=wrap;rounded=0;fillColor=#d80073;strokeColor=#A50040;fontColor=#ffffff;" vertex="1" parent="1">
          <mxGeometry x="1172.57" y="1745" width="125" height="30" as="geometry" />
        </mxCell>
        <mxCell id="M0wv-4VBMUWfz7l9fkuc-61" value="SPI (Reserved)" style="text;html=1;align=center;verticalAlign=middle;whiteSpace=wrap;rounded=0;fillColor=#d80073;strokeColor=#A50040;fontColor=#ffffff;" vertex="1" parent="1">
          <mxGeometry x="1172.57" y="1709" width="125" height="30" as="geometry" />
        </mxCell>
        <mxCell id="M0wv-4VBMUWfz7l9fkuc-62" value="SPI (Reserved)" style="text;html=1;align=center;verticalAlign=middle;whiteSpace=wrap;rounded=0;fillColor=#d80073;strokeColor=#A50040;fontColor=#ffffff;" vertex="1" parent="1">
          <mxGeometry x="1172.57" y="1672" width="125" height="30" as="geometry" />
        </mxCell>
        <mxCell id="M0wv-4VBMUWfz7l9fkuc-63" value="SPI (Reserved)" style="text;html=1;align=center;verticalAlign=middle;whiteSpace=wrap;rounded=0;fillColor=#d80073;strokeColor=#A50040;fontColor=#ffffff;" vertex="1" parent="1">
          <mxGeometry x="214.9999999999999" y="1635" width="125" height="30" as="geometry" />
        </mxCell>
        <mxCell id="M0wv-4VBMUWfz7l9fkuc-64" value="SPI (Reserved)" style="text;html=1;align=center;verticalAlign=middle;whiteSpace=wrap;rounded=0;fillColor=#d80073;strokeColor=#A50040;fontColor=#ffffff;" vertex="1" parent="1">
          <mxGeometry x="214.9999999999999" y="1672" width="125" height="30" as="geometry" />
        </mxCell>
        <mxCell id="M0wv-4VBMUWfz7l9fkuc-65" value="SPI (Reserved)" style="text;html=1;align=center;verticalAlign=middle;whiteSpace=wrap;rounded=0;fillColor=#d80073;strokeColor=#A50040;fontColor=#ffffff;" vertex="1" parent="1">
          <mxGeometry x="214.9999999999999" y="1709" width="125" height="30" as="geometry" />
        </mxCell>
        <mxCell id="M0wv-4VBMUWfz7l9fkuc-66" value="INPUT ONLY" style="text;html=1;align=center;verticalAlign=middle;whiteSpace=wrap;rounded=0;fillColor=#0050ef;strokeColor=#001DBC;fontColor=#ffffff;" vertex="1" parent="1">
          <mxGeometry x="214.9999999999999" y="1230" width="125" height="30" as="geometry" />
        </mxCell>
        <mxCell id="M0wv-4VBMUWfz7l9fkuc-67" value="INPUT ONLY" style="text;html=1;align=center;verticalAlign=middle;whiteSpace=wrap;rounded=0;fillColor=#0050ef;strokeColor=#001DBC;fontColor=#ffffff;" vertex="1" parent="1">
          <mxGeometry x="214.9999999999999" y="1193" width="125" height="30" as="geometry" />
        </mxCell>
        <mxCell id="M0wv-4VBMUWfz7l9fkuc-68" value="INPUT ONLY" style="text;html=1;align=center;verticalAlign=middle;whiteSpace=wrap;rounded=0;fillColor=#0050ef;strokeColor=#001DBC;fontColor=#ffffff;" vertex="1" parent="1">
          <mxGeometry x="214.9999999999999" y="1156" width="125" height="30" as="geometry" />
        </mxCell>
        <mxCell id="M0wv-4VBMUWfz7l9fkuc-69" value="INPUT ONLY" style="text;html=1;align=center;verticalAlign=middle;whiteSpace=wrap;rounded=0;fillColor=#0050ef;strokeColor=#001DBC;fontColor=#ffffff;" vertex="1" parent="1">
          <mxGeometry x="214.9999999999999" y="1267" width="125" height="30" as="geometry" />
        </mxCell>
      </root>
    </mxGraphModel>
  </diagram>
</mxfile>
